<svg width="32" height="32" viewBox="0 0 32 32" fill="none" xmlns="http://www.w3.org/2000/svg">
            <path d="M16 0.25C7.30234 0.25 0.25 7.30234 0.25 16C0.25 24.6977 7.30234 31.75 16 31.75C24.6977 31.75 31.75 24.6977 31.75 16C31.75 7.30234 24.6977 0.25 16 0.25ZM16 29.0781C8.77891 29.0781 2.92188 23.2211 2.92188 16C2.92188 8.77891 8.77891 2.92188 16 2.92188C23.2211 2.92188 29.0781 8.77891 29.0781 16C29.0781 23.2211 23.2211 29.0781 16 29.0781Z" fill="#1890FF"/>
            <path d="M22.4688 14.875H17.125V9.53125C17.125 9.37656 16.9984 9.25 16.8438 9.25H15.1562C15.0016 9.25 14.875 9.37656 14.875 9.53125V14.875H9.53125C9.37656 14.875 9.25 15.0016 9.25 15.1562V16.8438C9.25 16.9984 9.37656 17.125 9.53125 17.125H14.875V22.4688C14.875 22.6234 15.0016 22.75 15.1562 22.75H16.8438C16.9984 22.75 17.125 22.6234 17.125 22.4688V17.125H22.4688C22.6234 17.125 22.75 16.9984 22.75 16.8438V15.1562C22.75 15.0016 22.6234 14.875 22.4688 14.875Z" fill="#1890FF"/>
            </svg>