<svg width="23" height="23" viewBox="0 0 23 23" fill="none" xmlns="http://www.w3.org/2000/svg">
<path d="M22.7508 9.9375H4.46645L15.4102 0.4375C15.5852 0.284375 15.4789 0 15.2477 0H12.4821C12.3602 0 12.2446 0.0437498 12.1539 0.121875L0.344573 10.3688C0.236412 10.4625 0.149668 10.5784 0.0902181 10.7086C0.0307678 10.8388 0 10.9803 0 11.1234C0 11.2666 0.0307678 11.408 0.0902181 11.5383C0.149668 11.6685 0.236412 11.7844 0.344573 11.8781L12.2227 22.1875C12.2696 22.2281 12.3258 22.25 12.3852 22.25H15.2446C15.4758 22.25 15.5821 21.9625 15.4071 21.8125L4.46645 12.3125H22.7508C22.8883 12.3125 23.0008 12.2 23.0008 12.0625V10.1875C23.0008 10.05 22.8883 9.9375 22.7508 9.9375Z" fill="url(#paint0_linear_27_4997)"/>
<defs>
<linearGradient id="paint0_linear_27_4997" x1="0" y1="22.25" x2="23.0008" y2="22.25" gradientUnits="userSpaceOnUse">
<stop stop-color="#E0BF88"/>
<stop offset="0.477083" stop-color="#E7CD9A"/>
<stop offset="1" stop-color="#F2E1B4"/>
</linearGradient>
</defs>
</svg>
