<svg width="20" height="20" viewBox="0 0 20 20" fill="none" xmlns="http://www.w3.org/2000/svg">
<circle cx="10.0013" cy="10.0001" r="7.83333" stroke="#1EFCF1"/>
<g clip-path="url(#clip0_54640_193745)">
<path d="M7.72651 7.63117V11.1581L6.66797 11.7684V5.83325L9.80309 7.54645L12.918 5.83325V6.98639L9.80309 8.80154L7.72651 7.63117Z" fill="#1EFCF1"/>
<path d="M11.8594 12.3994L11.8594 8.93302L12.918 8.33317L12.918 14.1665L9.78285 12.4827L6.66797 14.1665L6.66797 13.0331L9.78285 11.2491L11.8594 12.3994Z" fill="#00A299"/>
</g>
<defs>
<clipPath id="clip0_54640_193745">
<rect width="6.25" height="8.33333" fill="white" transform="translate(6.66797 5.83325)"/>
</clipPath>
</defs>
</svg>
<svg width="20" height="20" viewBox="0 0 20 20" fill="none" xmlns="http://www.w3.org/2000/svg">
<circle cx="10.0013" cy="10.0001" r="7.83333" stroke="#1EFCF1"/>
<g clip-path="url(#clip0_54640_193745)">
<path d="M7.72651 7.63117V11.1581L6.66797 11.7684V5.83325L9.80309 7.54645L12.918 5.83325V6.98639L9.80309 8.80154L7.72651 7.63117Z" fill="#1EFCF1"/>
<path d="M11.8594 12.3994L11.8594 8.93302L12.918 8.33317L12.918 14.1665L9.78285 12.4827L6.66797 14.1665L6.66797 13.0331L9.78285 11.2491L11.8594 12.3994Z" fill="#00A299"/>
</g>
<defs>
<clipPath id="clip0_54640_193745">
<rect width="6.25" height="8.33333" fill="white" transform="translate(6.66797 5.83325)"/>
</clipPath>
</defs>
</svg>
