<svg width="18" height="18" viewBox="0 0 18 18" fill="none" xmlns="http://www.w3.org/2000/svg">
<path d="M15.375 2.25L10.125 6.75L11.1 4.09511L15.375 2.25Z" fill="#E17726" stroke="#E17726" stroke-width="0.712817" stroke-linecap="round" stroke-linejoin="round"/>
<path d="M2.625 2.25L7.875 6.75L6.93922 4.07781L2.625 2.25Z" fill="#E27625" stroke="#E27625" stroke-width="0.712817" stroke-linecap="round" stroke-linejoin="round"/>
<path d="M13.4993 12.375L12 14.5426L15.2081 15.375L16.125 12.4229L13.4993 12.375Z" fill="#E27625" stroke="#E27625" stroke-width="0.712817" stroke-linecap="round" stroke-linejoin="round"/>
<path d="M1.875 12.4229L2.87047 15.375L6.375 14.5426L4.74329 12.375L1.875 12.4229Z" fill="#E27625" stroke="#E27625" stroke-width="0.712817" stroke-linecap="round" stroke-linejoin="round"/>
<path d="M5.82374 8.11338L4.875 9.59495L8.25 9.75L8.13584 6L5.82374 8.11338Z" fill="#E27625" stroke="#E27625" stroke-width="0.712817" stroke-linecap="round" stroke-linejoin="round"/>
<path d="M12.2817 8.13208L10.1944 6L10.125 9.75L13.125 9.59672L12.2817 8.13208Z" fill="#E27625" stroke="#E27625" stroke-width="0.712817" stroke-linecap="round" stroke-linejoin="round"/>
<path d="M6.375 14.25L7.875 13.4624L6.58287 12.375L6.375 14.25Z" fill="#E27625" stroke="#E27625" stroke-width="0.712817" stroke-linecap="round" stroke-linejoin="round"/>
<path d="M10.5 13.4624L12 14.25L11.7921 12.375L10.5 13.4624Z" fill="#E27625" stroke="#E27625" stroke-width="0.712817" stroke-linecap="round" stroke-linejoin="round"/>
<path d="M12 14.4857L10.5 13.5L10.6194 14.8198L10.6063 15.375L12 14.4857Z" fill="#D5BFB2" stroke="#D5BFB2" stroke-width="0.712817" stroke-linecap="round" stroke-linejoin="round"/>
<path d="M6.375 14.4857L7.76867 15.375L7.75995 14.8198L7.875 13.5L6.375 14.4857Z" fill="#D5BFB2" stroke="#D5BFB2" stroke-width="0.712817" stroke-linecap="round" stroke-linejoin="round"/>
<path d="M7.875 11.25L6.375 10.7136L7.43333 10.125L7.875 11.25Z" fill="#233447" stroke="#233447" stroke-width="0.712817" stroke-linecap="round" stroke-linejoin="round"/>
<path d="M10.5 11.25L10.8301 10.125L11.625 10.7136L10.5 11.25Z" fill="#233447" stroke="#233447" stroke-width="0.712817" stroke-linecap="round" stroke-linejoin="round"/>
<path d="M6.08168 14.25L6.375 12.375L4.5 12.4164L6.08168 14.25Z" fill="#CC6228" stroke="#CC6228" stroke-width="0.712817" stroke-linecap="round" stroke-linejoin="round"/>
<path d="M11.625 12.375L11.9174 14.25L13.5 12.4164L11.625 12.375Z" fill="#CC6228" stroke="#CC6228" stroke-width="0.712817" stroke-linecap="round" stroke-linejoin="round"/>
<path d="M13.125 9.375L10.125 9.52443L10.4026 11.25L10.8458 10.211L11.9131 10.7546L13.125 9.375Z" fill="#CC6228" stroke="#CC6228" stroke-width="0.712817" stroke-linecap="round" stroke-linejoin="round"/>
<path d="M6.24428 10.7546L7.43908 10.211L7.9377 11.25L8.25 9.52443L4.875 9.375L6.24428 10.7546Z" fill="#CC6228" stroke="#CC6228" stroke-width="0.712817" stroke-linecap="round" stroke-linejoin="round"/>
<path d="M4.875 9.375L6.375 12.375L6.32429 10.8814L4.875 9.375Z" fill="#E27525" stroke="#E27525" stroke-width="0.712817" stroke-linecap="round" stroke-linejoin="round"/>
<path d="M11.682 10.8814L11.625 12.375L13.125 9.375L11.682 10.8814Z" fill="#E27525" stroke="#E27525" stroke-width="0.712817" stroke-linecap="round" stroke-linejoin="round"/>
<path d="M8.11884 9.75L7.875 11.4699L8.18442 13.5L8.25 10.8272L8.11884 9.75Z" fill="#E27525" stroke="#E27525" stroke-width="0.712817" stroke-linecap="round" stroke-linejoin="round"/>
<path d="M10.0062 9.75L9.75 10.8213L9.87344 13.5L10.5 11.4699L10.0062 9.75Z" fill="#E27525" stroke="#E27525" stroke-width="0.712817" stroke-linecap="round" stroke-linejoin="round"/>
<path d="M10.1046 11.3515L9.75 13.3104L10.0077 13.5L11.5768 12.1906L11.625 10.875L10.1046 11.3515Z" fill="#F5841F" stroke="#F5841F" stroke-width="0.712817" stroke-linecap="round" stroke-linejoin="round"/>
<path d="M6.375 10.875L6.41799 12.1906L7.99154 13.5L8.25 13.3104L7.89442 11.3515L6.375 10.875Z" fill="#F5841F" stroke="#F5841F" stroke-width="0.712817" stroke-linecap="round" stroke-linejoin="round"/>
<path d="M10.3141 15.1619L10.3299 14.5926L10.1965 14.4581H8.17848L8.05037 14.5926L8.06092 15.1619L6.375 14.25L6.96386 14.8007L8.16266 15.75H10.2123L11.4111 14.8007L12 14.25L10.3141 15.1619Z" fill="#C0AC9D" stroke="#C0AC9D" stroke-width="0.712817" stroke-linecap="round" stroke-linejoin="round"/>
<path d="M10.3337 13.6461L10.038 13.5H8.33092L8.03527 13.6461L7.875 14.625L8.02252 14.5277H10.3464L10.5 14.625L10.3337 13.6461Z" fill="#161616" stroke="#161616" stroke-width="0.712817" stroke-linecap="round" stroke-linejoin="round"/>
<path d="M15.6906 6.75188L16.125 4.41811L15.4737 2.25L10.5 6.33437L12.4132 8.12442L15.1167 9L15.7115 8.22752L15.4528 8.02187L15.8663 7.6038L15.5511 7.3294L15.9646 6.98063L15.6906 6.75188Z" fill="#763E1A" stroke="#763E1A" stroke-width="0.712817" stroke-linecap="round" stroke-linejoin="round"/>
<path d="M1.875 4.41811L2.34377 6.75188L2.0461 6.98063L2.48717 7.3294L2.15094 7.6038L2.592 8.02187L2.31607 8.22752L2.9505 9L5.83426 8.12442L7.875 6.33437L2.56973 2.25L1.875 4.41811Z" fill="#763E1A" stroke="#763E1A" stroke-width="0.712817" stroke-linecap="round" stroke-linejoin="round"/>
<path d="M15.11 9.15323L12.0774 8.25L12.9936 9.66065L11.625 12.375L13.434 12.3512H16.125L15.11 9.15323Z" fill="#F5841F" stroke="#F5841F" stroke-width="0.712817" stroke-linecap="round" stroke-linejoin="round"/>
<path d="M5.92203 8.25L2.88561 9.15323L1.875 12.3512H4.56939L6.375 12.375L5.00464 9.66065L5.92203 8.25Z" fill="#F5841F" stroke="#F5841F" stroke-width="0.712817" stroke-linecap="round" stroke-linejoin="round"/>
<path d="M9.8472 9.85011L10.036 6.5067L10.875 4.125H7.125L7.96399 6.5067L8.1528 9.85011L8.22504 10.9043L8.23052 13.5H9.76948L9.77496 10.9043L9.8472 9.85011Z" fill="#F5841F" stroke="#F5841F" stroke-width="0.712817" stroke-linecap="round" stroke-linejoin="round"/>
</svg>
